# xmcd
#
# Track frame offsets: 
#        150
#        12087
#        23744
#        34958
#        48055
#        58547
#        68687
#        80012
#        89612
#        101727
#        111990
#        122952
#        131996
#        143896
#        155019
#        166550
#        176931
#        187953
#        197140
#        206773
#
# Disc length: 2871 seconds
#
# Revision: 0
# Processed by: cddbd v1.5.2PL0 Copyright (c) Steve Scherf et al.
# Submitted via: ExactAudioCopy v1.1
#
DISCID=1f0b3514
DTITLE=Porter Wagoner - The Essential Recordings_CD2
DYEAR=2017
DGENRE=Country
TTITLE0=Misery Loves Company
TTITLE1=I Thought I Heard You Calling My Name
TTITLE2=The Girl Who Didn't Need Love
TTITLE3=An Old Log Cabin For Sale
TTITLE4=Falling Again
TTITLE5=Your Old Love Letters
TTITLE6=Cold Dark Waters
TTITLE7=I Wonder Where You Are Tonight
TTITLE8=I've Enjoyed As Much Of This As I Can Stand
TTITLE9=Everything She Touches Gets The Blues
TTITLE10=My Name Is Mud
TTITLE11=Sugarfoot Rag
TTITLE12=One Way Ticket To The Blues
TTITLE13=Take Good Care Of Her
TTITLE14=I Went Out Of My Way
TTITLE15=I Gotta Find Someone (Who Loves Like I Do)
TTITLE16=Cryin' Loud
TTITLE17=Ain't It Awful
TTITLE18=There's Always One (Who Loves You A Lot) (With Skeeter Davis)
TTITLE19=My Greatest Weakness (With Skeeter Davis)
EXTD=
EXTT0=
EXTT1=
EXTT2=
EXTT3=
EXTT4=
EXTT5=
EXTT6=
EXTT7=
EXTT8=
EXTT9=
EXTT10=
EXTT11=
EXTT12=
EXTT13=
EXTT14=
EXTT15=
EXTT16=
EXTT17=
EXTT18=
EXTT19=
PLAYORDER=
